<mxfile host="app.diagrams.net" agent="Mozilla/5.0 (Windows NT 10.0; Win64; x64) AppleWebKit/537.36 (KHTML, like Gecko) Chrome/136.0.0.0 Safari/537.36" version="27.0.6">
  <diagram name="Page-1" id="j9-R_Wtz7OfHySrNOQdw">
    <mxGraphModel dx="786" dy="459" grid="1" gridSize="10" guides="1" tooltips="1" connect="1" arrows="1" fold="1" page="1" pageScale="1" pageWidth="827" pageHeight="1169" math="0" shadow="0">
      <root>
        <mxCell id="0" />
        <mxCell id="1" parent="0" />
        <mxCell id="DE_CCLFDZoFs5NLtge6C-1" value="" style="whiteSpace=wrap;html=1;aspect=fixed;" vertex="1" parent="1">
          <mxGeometry x="230" y="30" width="440" height="440" as="geometry" />
        </mxCell>
        <mxCell id="DE_CCLFDZoFs5NLtge6C-2" value="Gestion d&#39;une bibliothèque" style="text;html=1;align=center;verticalAlign=middle;resizable=0;points=[];autosize=1;strokeColor=none;fillColor=none;" vertex="1" parent="1">
          <mxGeometry x="230" y="30" width="170" height="30" as="geometry" />
        </mxCell>
        <mxCell id="DE_CCLFDZoFs5NLtge6C-3" value="Rechercher les livres" style="ellipse;whiteSpace=wrap;html=1;" vertex="1" parent="1">
          <mxGeometry x="274" y="90" width="96" height="40" as="geometry" />
        </mxCell>
        <mxCell id="DE_CCLFDZoFs5NLtge6C-4" value="Reserver les livres" style="ellipse;whiteSpace=wrap;html=1;" vertex="1" parent="1">
          <mxGeometry x="274" y="150" width="90" height="40" as="geometry" />
        </mxCell>
        <mxCell id="DE_CCLFDZoFs5NLtge6C-5" value="emprunter les livres" style="ellipse;whiteSpace=wrap;html=1;" vertex="1" parent="1">
          <mxGeometry x="274" y="210" width="90" height="40" as="geometry" />
        </mxCell>
        <mxCell id="DE_CCLFDZoFs5NLtge6C-6" value="Gestion des comptes" style="ellipse;whiteSpace=wrap;html=1;" vertex="1" parent="1">
          <mxGeometry x="272" y="320" width="100" height="40" as="geometry" />
        </mxCell>
        <mxCell id="DE_CCLFDZoFs5NLtge6C-7" value="Ajouter des livres" style="ellipse;whiteSpace=wrap;html=1;" vertex="1" parent="1">
          <mxGeometry x="274" y="380" width="110" height="40" as="geometry" />
        </mxCell>
        <mxCell id="DE_CCLFDZoFs5NLtge6C-10" value="Un membre peut emprunter que 3 livres.&lt;div&gt;la durée d&#39;emprunt est de 3 semaines.&lt;/div&gt;" style="shape=note2;boundedLbl=1;whiteSpace=wrap;html=1;size=25;verticalAlign=top;align=center;" vertex="1" parent="1">
          <mxGeometry x="540" y="40" width="120" height="120" as="geometry" />
        </mxCell>
        <mxCell id="DE_CCLFDZoFs5NLtge6C-19" style="edgeStyle=orthogonalEdgeStyle;shape=connector;rounded=0;orthogonalLoop=1;jettySize=auto;html=1;strokeColor=default;align=center;verticalAlign=middle;fontFamily=Helvetica;fontSize=11;fontColor=default;labelBackgroundColor=default;startFill=0;endArrow=none;" edge="1" parent="1" target="DE_CCLFDZoFs5NLtge6C-7">
          <mxGeometry relative="1" as="geometry">
            <mxPoint x="130" y="360" as="sourcePoint" />
          </mxGeometry>
        </mxCell>
        <mxCell id="DE_CCLFDZoFs5NLtge6C-22" style="shape=connector;rounded=0;orthogonalLoop=1;jettySize=auto;html=1;strokeColor=default;align=center;verticalAlign=middle;fontFamily=Helvetica;fontSize=11;fontColor=default;labelBackgroundColor=default;startFill=0;endArrow=block;endFill=0;" edge="1" parent="1" source="DE_CCLFDZoFs5NLtge6C-11" target="DE_CCLFDZoFs5NLtge6C-12">
          <mxGeometry relative="1" as="geometry" />
        </mxCell>
        <mxCell id="DE_CCLFDZoFs5NLtge6C-11" value="employer" style="shape=umlActor;verticalLabelPosition=bottom;verticalAlign=top;html=1;" vertex="1" parent="1">
          <mxGeometry x="100" y="320" width="30" height="60" as="geometry" />
        </mxCell>
        <mxCell id="DE_CCLFDZoFs5NLtge6C-15" style="edgeStyle=orthogonalEdgeStyle;rounded=0;orthogonalLoop=1;jettySize=auto;html=1;endArrow=none;startFill=0;" edge="1" parent="1" source="DE_CCLFDZoFs5NLtge6C-12" target="DE_CCLFDZoFs5NLtge6C-3">
          <mxGeometry relative="1" as="geometry" />
        </mxCell>
        <mxCell id="DE_CCLFDZoFs5NLtge6C-16" style="edgeStyle=orthogonalEdgeStyle;rounded=0;orthogonalLoop=1;jettySize=auto;html=1;entryX=0;entryY=0.5;entryDx=0;entryDy=0;endArrow=none;startFill=0;" edge="1" parent="1" source="DE_CCLFDZoFs5NLtge6C-12" target="DE_CCLFDZoFs5NLtge6C-4">
          <mxGeometry relative="1" as="geometry" />
        </mxCell>
        <mxCell id="DE_CCLFDZoFs5NLtge6C-17" style="edgeStyle=orthogonalEdgeStyle;shape=connector;rounded=0;orthogonalLoop=1;jettySize=auto;html=1;entryX=0;entryY=0.5;entryDx=0;entryDy=0;strokeColor=default;align=center;verticalAlign=middle;fontFamily=Helvetica;fontSize=11;fontColor=default;labelBackgroundColor=default;startFill=0;endArrow=none;" edge="1" parent="1" source="DE_CCLFDZoFs5NLtge6C-12" target="DE_CCLFDZoFs5NLtge6C-5">
          <mxGeometry relative="1" as="geometry" />
        </mxCell>
        <mxCell id="DE_CCLFDZoFs5NLtge6C-24" style="edgeStyle=orthogonalEdgeStyle;shape=connector;rounded=0;orthogonalLoop=1;jettySize=auto;html=1;entryX=0;entryY=0.5;entryDx=0;entryDy=0;strokeColor=default;align=center;verticalAlign=middle;fontFamily=Helvetica;fontSize=11;fontColor=default;labelBackgroundColor=default;startFill=0;endArrow=none;" edge="1" parent="1" source="DE_CCLFDZoFs5NLtge6C-12" target="DE_CCLFDZoFs5NLtge6C-23">
          <mxGeometry relative="1" as="geometry" />
        </mxCell>
        <mxCell id="DE_CCLFDZoFs5NLtge6C-12" value="Client" style="shape=umlActor;verticalLabelPosition=bottom;verticalAlign=top;html=1;" vertex="1" parent="1">
          <mxGeometry x="100" y="80" width="30" height="60" as="geometry" />
        </mxCell>
        <mxCell id="DE_CCLFDZoFs5NLtge6C-18" style="edgeStyle=orthogonalEdgeStyle;shape=connector;rounded=0;orthogonalLoop=1;jettySize=auto;html=1;entryX=0.067;entryY=0.7;entryDx=0;entryDy=0;entryPerimeter=0;strokeColor=default;align=center;verticalAlign=middle;fontFamily=Helvetica;fontSize=11;fontColor=default;labelBackgroundColor=default;startFill=0;endArrow=none;" edge="1" parent="1" target="DE_CCLFDZoFs5NLtge6C-6">
          <mxGeometry relative="1" as="geometry">
            <mxPoint x="130" y="360" as="sourcePoint" />
          </mxGeometry>
        </mxCell>
        <mxCell id="DE_CCLFDZoFs5NLtge6C-20" value="envoyer un mail" style="ellipse;whiteSpace=wrap;html=1;fontFamily=Helvetica;fontSize=11;fontColor=default;labelBackgroundColor=default;" vertex="1" parent="1">
          <mxGeometry x="470" y="210" width="90" height="45" as="geometry" />
        </mxCell>
        <mxCell id="DE_CCLFDZoFs5NLtge6C-21" value="&amp;lt;&amp;lt;extend&amp;gt;&amp;gt;" style="html=1;verticalAlign=bottom;labelBackgroundColor=none;endArrow=open;endFill=0;dashed=1;rounded=0;strokeColor=default;align=center;fontFamily=Helvetica;fontSize=11;fontColor=default;edgeStyle=orthogonalEdgeStyle;entryX=0;entryY=0.5;entryDx=0;entryDy=0;" edge="1" parent="1" target="DE_CCLFDZoFs5NLtge6C-20">
          <mxGeometry width="160" relative="1" as="geometry">
            <mxPoint x="360" y="240" as="sourcePoint" />
            <mxPoint x="460" y="240" as="targetPoint" />
          </mxGeometry>
        </mxCell>
        <mxCell id="DE_CCLFDZoFs5NLtge6C-23" value="retourner le livre" style="ellipse;whiteSpace=wrap;html=1;fontFamily=Helvetica;fontSize=11;fontColor=default;labelBackgroundColor=default;" vertex="1" parent="1">
          <mxGeometry x="266.5" y="270" width="97" height="30" as="geometry" />
        </mxCell>
      </root>
    </mxGraphModel>
  </diagram>
</mxfile>
